<?xml version="1.0" encoding="UTF-8"?>
<svg xmlns="http://www.w3.org/2000/svg" viewBox="0 0 500 500" style="background-color: white;">
<path d="M -180.000 0.000 L -162.000 -31.177 L -138.617 -17.677 L -125.117 -41.060 L -156.294 -59.060 L -147.294 -74.648 L -139.500 -70.148 L -117.000 -109.119 L -98.294 -98.319 L -84.794 -121.702 L -103.500 -132.502 L -90.000 -155.885 L -54.000 -155.885 L -54.000 -128.885 L -27.000 -128.885 L -27.000 -164.885 L -9.000 -164.885 L -9.000 -155.885 L 36.000 -155.885 L 36.000 -134.285 L 63.000 -134.285 L 63.000 -155.885 L 90.000 -155.885 L 108.000 -124.708 L 84.617 -111.208 L 98.117 -87.825 L 129.294 -105.825 L 138.294 -90.237 L 130.500 -85.737 L 153.000 -46.765 L 134.294 -35.965 L 147.794 -12.583 L 166.500 -23.383 L 180.000 0.000 L 166.500 23.383 L 185.206 34.183 L 171.706 57.565 L 153.000 46.765 L 130.500 85.737 L 122.706 81.237 L 113.706 96.825 L 144.883 114.825 L 131.383 138.208 L 108.000 124.708 L 90.000 155.885 L 63.000 155.885 L 63.000 177.485 L 36.000 177.485 L 36.000 155.885 L -9.000 155.885 L -9.000 146.885 L -27.000 146.885 L -27.000 182.885 L -54.000 182.885 L -54.000 155.885 L -90.000 155.885 L -103.500 132.502 L -122.206 143.302 L -135.706 119.919 L -117.000 109.119 L -139.500 70.148 L -131.706 65.648 L -140.706 50.060 L -171.883 68.060 L -185.383 44.677 L -162.000 31.177 L -180.000 0.000 Z M 0.000 -64.800 L 54.000 -18.000 L 36.000 54.000 L -43.200 43.200 L -64.800 -7.200 Z" fill="black" fill-rule="evenodd" transform="translate(250, 250)" />
</svg>